# xmcd CD database file
#
# Track frame offsets:
#	150
#	36435
#	60177
#	87040
#	133068
#	144254
#	187024
#	231020
#	266319
#
# Disc length: 3898 seconds
#
# Revision: 0
# Processed by: cddbd v1.4PL0 Copyright (c) Steve Scherf et al.
# Submitted via: CDex 1.50beta10
#
DISCID=710f3809
DTITLE=Pat Metheny - Imaginary Day
DYEAR=1900
DGENRE=Jazz
TTITLE0=A story within the story
TTITLE1=Across the sky
TTITLE2=Follow me
TTITLE3=Imaginary day
TTITLE4=Into the dream
TTITLE5=The awakening
TTITLE6=The heat of the day
TTITLE7=The roots of coincidence
TTITLE8=Too soon tomorrow
EXTD=
EXTT0=
EXTT1=
EXTT2=
EXTT3=
EXTT4=
EXTT5=
EXTT6=
EXTT7=
EXTT8=
PLAYORDER=
